<?xml version="1.0" encoding="utf-8"?>
<!-- Generator: Adobe Illustrator 26.4.1, SVG Export Plug-In . SVG Version: 6.00 Build 0)  -->
<svg version="1.1" id="Capa_2" xmlns="http://www.w3.org/2000/svg" xmlns:xlink="http://www.w3.org/1999/xlink" x="0px" y="0px"
	 viewBox="0 0 245.239 259.674" enable-background="new 0 0 245.239 259.674" xml:space="preserve">
<g>
	<path fill="#FFF8F0" stroke="#000000" stroke-width="8" stroke-miterlimit="10" d="M233.011,182.793l-94.024,68.313
		c-7.599,5.521-18.235,3.837-23.757-3.763L8.596,100.573c-5.521-7.599-3.837-18.235,3.763-23.757l94.024-68.313
		c7.599-5.521,18.235-3.837,23.757,3.763l106.634,146.77C242.295,166.635,240.61,177.271,233.011,182.793z"/>
	<path fill="#FFF8F0" stroke="#000000" stroke-width="8" stroke-miterlimit="10" d="M211.237,214.292l-110.532,35.914
		c-8.933,2.903-18.528-1.986-21.431-10.92L23.213,66.748c-2.903-8.934,1.986-18.529,10.92-21.431L144.665,9.403
		c8.934-2.903,18.529,1.986,21.431,10.92l56.061,172.538C225.059,201.794,220.17,211.389,211.237,214.292z"/>
	<path fill="#FFF8F0" stroke="#000000" stroke-width="8" stroke-miterlimit="10" d="M180.795,237.521H64.574
		c-9.393,0-17.008-7.615-17.008-17.008l0-181.417c0-9.393,7.615-17.008,17.008-17.008l116.22,0c9.393,0,17.008,7.615,17.008,17.008
		v181.417C197.803,229.906,190.188,237.521,180.795,237.521z"/>
	<rect x="64.574" y="39.096" fill="#42A2A2" width="10" height="10"/>
	<rect x="170.795" y="39.096" fill="#42A2A2" width="10" height="10"/>
	<rect x="170.795" y="210.513" fill="#42A2A2" width="10" height="10"/>
	<rect x="64.574" y="210.513" fill="#42A2A2" width="10" height="10"/>
	<path fill="#406C80" d="M117.791,170.274c-7.81-2.82-15.429-6.432-23.287-9.372c-1.784-4.595-4.465-22.655-4.148-28.189
		c6.79-5.09,13.692-10.263,20.613-15.451c4.082,1.419,8.013,3.153,12,4.711c4.053,1.584,7.908,3.505,11.938,5.254
		c1.355,9.478,2.54,18.927,3.221,28.45C131.95,161.205,124.984,165.428,117.791,170.274z"/>
	<path fill="#42A2A2" d="M138.58,126.786c-8.906-4.746-17.995-8.518-27.561-11.708c0.681-8.194,1.356-16.32,2.034-24.485
		c8.775-2.246,17.52-3.633,26.646-3.7c6.201,6.477,11.536,13.68,16.106,21.588C150.508,114.913,144.735,120.91,138.58,126.786z"/>
	<path fill="#406C80" d="M157.546,111.656c4.573,2.118,8.755,4.717,12.733,7.637c0.665,0.488,1.22,1.394,1.415,2.205
		c0.786,3.259,1.677,6.529,2.027,9.847c0.451,4.263,0.464,8.575,0.561,12.869c0.021,0.942-0.163,2.049-0.659,2.817
		c-3.121,4.839-6.46,9.527-10.309,13.827c-0.218,0.243-0.483,0.445-0.848,0.776c-6.271-2.006-12.415-4.412-18.164-7.271
		c-1.279-8.45-2.518-16.629-3.748-24.753C146.176,123.671,151.772,117.757,157.546,111.656z"/>
	<path fill="#406C80" d="M94.891,87.758c4.399,0.734,9.359,2.241,14.311,3.997c-0.088,7.671-1.159,15.412-1.592,23.429
		c-0.92,0.642-1.896,1.364-2.913,2.024c-5.166,3.355-10.35,6.681-15.506,10.051c-0.821,0.537-1.531,1.245-2.431,1.988
		c-0.532-0.056-1.853-0.404-2.422-0.648c-4.94-2.122-9.362-3.624-14.189-6.481c0.205-2.198,0.313-4.334,0.622-6.441
		c0.428-2.916,1.063-5.801,1.509-8.715c0.221-1.446,0.466-2.838,0.775-4.136c0.877-0.909,2.508-2.44,3.878-3.613
		C81.946,94.923,87.658,91.482,94.891,87.758z"/>
	<path fill="#42A2A2" d="M142.301,85.707c0.649-1.302,1.264-2.536,1.903-3.818c4.203,1.633,7.914,3.946,11.379,6.584
		c6.652,5.064,12.019,11.287,16.15,18.586c1.597,2.822,1.536,5.613,0.548,8.529c-4.438-2.803-8.68-5.033-13.557-7.431
		C154.369,100.275,148.767,92.742,142.301,85.707z"/>
	<path fill="#42A2A2" d="M140.237,80.332c-0.534,1.355-1.009,2.558-1.581,4.011c-9.455-0.329-18.644,1.412-27.482,3.711
		c-4.737-1.438-9.268-2.814-13.923-4.228c1.164-2.125,2.725-3.512,5.095-4.284c7.912-2.576,16.03-3.189,24.219-2.483
		C131.119,77.451,135.654,78.402,140.237,80.332z"/>
	<path fill="#406C80" d="M78.757,133.012c1.786,0.755,3.385,1.642,4.753,2.22c0.402,2.244,0.535,3.909,0.833,6.266
		c-1.31,0.978-2.733,2.041-4.137,3.088c-1.818-0.707-3.482-1.353-5.449-2.117c-0.216-1.921-0.441-3.926-0.678-6.032
		C75.745,135.218,77.296,134.082,78.757,133.012z"/>
	<path fill="#406C80" d="M147.941,163.571c0,2.174,0,4.07,0,6.206c-1.411,0.747-2.909,1.54-4.528,2.397
		c-1.53-0.595-3.094-1.203-4.85-1.885c-0.247-2.058-0.479-3.991-0.713-5.944c1.424-1.135,2.944-2.364,4.381-3.51
		C144.146,161.682,145.915,162.399,147.941,163.571z"/>
	<path fill="none" stroke="#F90000" stroke-width="0.1" stroke-miterlimit="10" d="M78.097,174.185"/>
</g>
</svg>
